<svg xmlns="http://www.w3.org/2000/svg" viewBox="0 0 240.48 270"><defs><style>.cls-1{fill:#fff;}</style></defs><g id="Layer_2" data-name="Layer 2"><g id="Layer_1-2" data-name="Layer 1"><path class="cls-1" d="M120.24,270a24.71,24.71,0,0,1-12.38-3.31L12.39,211.57A24.84,24.84,0,0,1,0,190.12V79.88A24.84,24.84,0,0,1,12.39,58.43L107.86,3.31h0a24.84,24.84,0,0,1,24.77,0L228.1,58.43a24.83,24.83,0,0,1,12.38,21.45V190.12a24.83,24.83,0,0,1-12.38,21.45l-95.47,55.12A24.75,24.75,0,0,1,120.24,270ZM115,15.73,19.56,70.85a10.46,10.46,0,0,0-5.22,9V190.12a10.46,10.46,0,0,0,5.22,9L115,254.27a10.43,10.43,0,0,0,10.42,0l95.48-55.12a10.47,10.47,0,0,0,5.21-9V79.88a10.47,10.47,0,0,0-5.21-9L125.45,15.73a10.43,10.43,0,0,0-10.42,0Z"/><path class="cls-1" d="M225.79,73a28.87,28.87,0,0,0-29.15-.08l-75.92,43.5A29.25,29.25,0,0,0,106,141.72V231a29.14,29.14,0,0,0,43.72,25.34l75.91-43.5a29.25,29.25,0,0,0,14.69-25.34V98.22A28.89,28.89,0,0,0,225.79,73ZM152.93,217.33v19.85a2.31,2.31,0,0,1-1.16,2l-4,2.32a2.31,2.31,0,0,1-3.47-2V222.81c-5.17,2.07-11.05,2.15-15.43-.42a2.29,2.29,0,0,1-1-2.68l4.41-13.51a2.3,2.3,0,0,1,2.89-1.48c4.71,1.58,9,1.58,13.83-1.21,4.29-2.48,6.55-6.18,6.55-10.24,0-11.86-25.86,5.17-25.86-20.93a41.24,41.24,0,0,1,14.57-31.44V123.6a2.29,2.29,0,0,1,1.16-2l4-2.32a2.31,2.31,0,0,1,3.47,2v14.41c5.48-2,9.6-.71,13,2.31a2.29,2.29,0,0,1,.58,2.59l-4.93,12a2.33,2.33,0,0,1-3.05,1.24c-3.25-1.35-6.17-1.35-10.21,1a11.51,11.51,0,0,0-6.14,10.06c0,10.07,25.86-6.1,25.86,19.75A43.71,43.71,0,0,1,152.93,217.33Zm48.86-8.66-27.57,15.92a4.24,4.24,0,0,1-2.14.57,4.3,4.3,0,0,1-2.16-8l27.57-15.91a4.3,4.3,0,0,1,4.3,7.45Z"/></g></g></svg>