<svg xmlns="http://www.w3.org/2000/svg" viewBox="0 0 240.48 270"><defs><style>.cls-1{fill:#fff;}</style></defs><g id="Layer_2" data-name="Layer 2"><g id="Layer_1-2" data-name="Layer 1"><path class="cls-1" d="M120.24,270a24.71,24.71,0,0,1-12.38-3.31L12.39,211.57A24.84,24.84,0,0,1,0,190.12V79.88A24.84,24.84,0,0,1,12.39,58.43L107.86,3.31l3.58,6.21-3.58-6.21a24.84,24.84,0,0,1,24.77,0L228.1,58.43a24.83,24.83,0,0,1,12.38,21.45V190.12a24.83,24.83,0,0,1-12.38,21.45l-95.47,55.12A24.75,24.75,0,0,1,120.24,270Zm0-255.66A10.41,10.41,0,0,0,115,15.73L19.56,70.85a10.46,10.46,0,0,0-5.22,9V190.12a10.46,10.46,0,0,0,5.22,9L115,254.27a10.43,10.43,0,0,0,10.42,0l95.47-55.12a10.46,10.46,0,0,0,5.22-9V79.88a10.46,10.46,0,0,0-5.22-9L125.45,15.73A10.38,10.38,0,0,0,120.24,14.34Z"/><path class="cls-1" d="M119.56,202.84a67.84,67.84,0,1,1,58.76-101.78,12,12,0,1,1-20.69,12,43.94,43.94,0,1,0,0,43.92,12,12,0,1,1,20.69,12A68.1,68.1,0,0,1,119.56,202.84Z"/></g></g></svg>