<svg xmlns="http://www.w3.org/2000/svg" viewBox="0 0 227.09 270"><defs><style>.cls-1{fill:#fff;}</style></defs><g id="Layer_2" data-name="Layer 2"><g id="Layer_1-2" data-name="Layer 1"><path class="cls-1" d="M113.84,270a7.53,7.53,0,0,1-2.91-.59L18.57,230.23A7.48,7.48,0,0,1,14,223.86L0,7.93A7.44,7.44,0,0,1,7.45,0H219.64a7.44,7.44,0,0,1,7.43,7.93L213,223.86a7.43,7.43,0,0,1-4.5,6.36L116.76,269.4A7.41,7.41,0,0,1,113.84,270ZM28.61,218.31l85.22,36.15,84.64-36.14L211.69,14.9H15.4Z"/><path class="cls-1" d="M165.16,131.79H61.69a12.41,12.41,0,0,1-5.54-23.52L116,78.42H58.23a12.41,12.41,0,1,1,0-24.82H168.62a12.41,12.41,0,0,1,5.55,23.52L114.37,107h50.79a12.42,12.42,0,0,1,0,24.83Z"/><path class="cls-1" d="M113.58,211.15a12.38,12.38,0,0,1-4.85-1L60.68,189.78a12.41,12.41,0,0,1-7.54-10.63l-1.26-19.29a12.42,12.42,0,0,1,24.78-1.61l.76,11.66,36.14,15.33,35.87-15.31,3.34-51.36a12.41,12.41,0,0,1,24.77,1.61l-3.83,59a12.41,12.41,0,0,1-7.51,10.62l-47.75,20.38A12.45,12.45,0,0,1,113.58,211.15Z"/></g></g></svg>