<svg xmlns="http://www.w3.org/2000/svg" viewBox="0 0 270.04 270"><defs><style>.cls-1{fill:#fff;}</style></defs><g id="Layer_2" data-name="Layer 2"><g id="Layer_1-2" data-name="Layer 1"><path class="cls-1" d="M258.53,107.21,162.81,11.49a39.35,39.35,0,0,0-55.58,0l-15.8,15.8L127,62.9a20.31,20.31,0,0,1,26.67,26.67l26.56,26.56a20.13,20.13,0,0,1,7.54-1.46,20.34,20.34,0,1,1-17.91,10.72L144.22,99.71a19.82,19.82,0,0,1-2.26,1v66.47a20.33,20.33,0,1,1-13.88,0V100.7A20.31,20.31,0,0,1,116.9,72.39L81.62,37.1,11.51,107.21a39.3,39.3,0,0,0,0,55.58l95.72,95.72a39.35,39.35,0,0,0,55.58,0l95.72-95.72a39.3,39.3,0,0,0,0-55.58Z"/></g></g></svg>