<svg xmlns="http://www.w3.org/2000/svg" viewBox="0 0 200.5 270"><defs><style>.cls-1{fill:#fff;}</style></defs><g id="Layer_2" data-name="Layer 2"><g id="Layer_1-2" data-name="Layer 1"><path class="cls-1" d="M59,199.38a194,194,0,0,1-24.32-1.23c-18.2-2.46-25.84-12.1-25.34-20.55.35-5.79,5-19.31,40.41-19.89A7.08,7.08,0,0,1,50,171.87c-19.58.32-25.79,5.16-26.47,6.55.45,1.18,4.21,4.5,13.06,5.69,25.14,3.4,90.87-1.35,115.3-8.33a7.08,7.08,0,1,1,3.89,13.61C135.61,195.15,90.88,199.38,59,199.38Z"/><path class="cls-1" d="M67.11,221.38c-22.66,0-36.56-5.06-40.51-15.12-3-7.52.69-15.79,9.06-20.57a7.08,7.08,0,0,1,7,12.3c-2.32,1.32-3,2.83-2.9,3.1s10.66,16.28,98.17-4a7.08,7.08,0,1,1,3.2,13.79C110.89,217.87,86,221.38,67.11,221.38Z"/><path class="cls-1" d="M65.32,244.28c-20.33,0-31.9-5.21-34.56-15.64-1.21-4.76-.15-9.94,3-14.61,2.7-4,6.58-7,10.37-8a7.08,7.08,0,0,1,3.71,13.67c-1.32.55-3.87,3.79-3.32,5.53,0,.15,6.69,13.89,82.71-4.64a7.08,7.08,0,0,1,3.35,13.76Q89.67,244.28,65.32,244.28Zm-17.55-24.6h0Z"/><path class="cls-1" d="M157.37,219.22a7.09,7.09,0,0,1-2.84-13.58c28.62-12.47,31.57-22.55,31.79-25.34.26-3.2-2.12-5.43-4.16-6.73-5-3.22-12.35-3.65-17.06-1a7.09,7.09,0,0,1-6.93-12.36c9.23-5.17,22.24-4.58,31.63,1.43,7.38,4.73,11.26,11.94,10.64,19.79-1.07,13.51-14.62,26-40.25,37.19A6.91,6.91,0,0,1,157.37,219.22Z"/><path class="cls-1" d="M66.1,270q-9.73,0-19.54-.61C29.74,268.34,1.32,263.91,0,246.07c-.66-9.14,7.11-17.5,18.47-19.86a7.08,7.08,0,1,1,2.88,13.86c-4.83,1-7.31,3.83-7.23,5,0,.08,2.51,8.28,33.29,10.2,26.84,1.68,54.9-.32,79-5.63,22.93-5,40.6-12.82,48.49-21.31A7.08,7.08,0,1,1,185.33,238C167.48,257.18,118.3,270,66.1,270Z"/><path class="cls-1" d="M78.42,168.31a7.08,7.08,0,0,1-5.82-3c-.82-1.18-1.79-2.5-2.85-4-10.62-14.53-30.38-41.58-15.29-70.86C61.26,77.25,70.56,67,78.76,58c15.13-16.67,25.12-27.69,17-48.29A7.08,7.08,0,0,1,109,4.49c11.3,28.78-4.47,46.17-19.72,63C81.26,76.28,73,85.39,67.05,97c-11.08,21.5,4.7,43.11,14.13,56,1.13,1.55,2.16,3,3,4.22a7.08,7.08,0,0,1-5.8,11.13Z"/><path class="cls-1" d="M102.9,180.77a7.08,7.08,0,0,1-4.65-12.42c19.31-16.83,20.25-27.22,4.2-46.36C93.62,111.46,92,98.56,97.81,84.7c4.34-10.39,11.7-18.83,15.65-23.36.73-.83,1.36-1.55,1.68-2a7.08,7.08,0,1,1,11.13,8.76c-.54.68-1.25,1.49-2.14,2.51-11,12.58-22.14,28.74-10.83,42.23,21,25.09,19.38,44.25-5.75,66.14A7.12,7.12,0,0,1,102.9,180.77Z"/></g></g></svg>