<svg xmlns="http://www.w3.org/2000/svg" viewBox="0 0 227.09 270"><defs><style>.cls-1{fill:#fff;}</style></defs><g id="Layer_2" data-name="Layer 2"><g id="Layer_1-2" data-name="Layer 1"><path class="cls-1" d="M113.84,270a7.53,7.53,0,0,1-2.91-.59L18.57,230.23A7.48,7.48,0,0,1,14,223.86L0,7.93A7.44,7.44,0,0,1,7.45,0H219.64a7.44,7.44,0,0,1,7.43,7.93L213,223.86a7.43,7.43,0,0,1-4.5,6.36L116.76,269.4A7.41,7.41,0,0,1,113.84,270ZM28.61,218.31l85.22,36.15,84.65-36.14L211.69,14.9H15.4Z"/><path class="cls-1" d="M129.19,204.49a12.42,12.42,0,0,1-4.88-23.84l25.12-10.72,1.83-28.2H129.49a12.41,12.41,0,0,1-12.41-12.41V66A12.41,12.41,0,0,1,129.49,53.6h39.13a12.41,12.41,0,1,1,0,24.82H141.91V116.9h22.6a12.42,12.42,0,0,1,12.39,13.22l-3.19,49a12.43,12.43,0,0,1-7.51,10.62l-32.14,13.72A12.35,12.35,0,0,1,129.19,204.49Z"/><path class="cls-1" d="M93.83,202.77a12.45,12.45,0,0,1-4.85-1l-28.3-12a12.41,12.41,0,0,1-7.54-10.63l-1.26-19.29a12.42,12.42,0,0,1,24.78-1.61l.76,11.66,3.87,1.64L80.56,66.09A12.4,12.4,0,0,1,92.89,53.6H93a12.42,12.42,0,0,1,12.41,12.32l.85,124.35a12.41,12.41,0,0,1-12.41,12.5Z"/></g></g></svg>