<svg xmlns="http://www.w3.org/2000/svg" viewBox="0 0 299.4 270"><defs><style>.cls-1{fill:#fff;}</style></defs><g id="Layer_2" data-name="Layer 2"><g id="Layer_1-2" data-name="Layer 1"><polyline class="cls-1" points="124.67 136.53 90.2 109.27 7.99 141.29 65.97 187.15"/><path class="cls-1" d="M66,195.14A8,8,0,0,1,61,193.42L3,147.55a8,8,0,0,1,2.06-13.71l82.21-32A8,8,0,0,1,95.16,103l34.47,27.27a8,8,0,0,1-9.91,12.53L88.84,118.37l-65,25.3,47.05,37.22a8,8,0,0,1-5,14.25Z"/><path class="cls-1" d="M129.58,270a8,8,0,0,1-7.15-4.42c-1.32-2.65-3.16-6.78-5.5-12-6.78-15.21-18.12-40.67-27.37-52.38-6.92-8.77-15-8.12-18.67-7.24a30.7,30.7,0,0,1-3,1,8,8,0,0,1-5.09-15.08,25.39,25.39,0,0,1,3.28-1.14c5.9-2.33,23.8-11.09,45.18-37.65,23.33-29,39.43-66.88,51.18-94.54,2.31-5.45,4.5-10.59,6.58-15.32C177.64,11.61,184.82,2.72,193.78.5c8.16-2,15,2.47,19.51,6,11.89,9.42,26.35,47.4,41.36,88.85,1.33,3.67,2.53,7,3.58,9.84,11.56,31.38,40.26,100.25,40.55,100.94a8,8,0,0,1-13.73,7.9c-15.09-19.85-38.79-29.5-46.68-28.89-4.18.33-19.92,4.11-47.08,39.32-24.47,31.72-57.49,44.47-58.89,45A7.94,7.94,0,0,1,129.58,270Zm-37.7-87.82a37.53,37.53,0,0,1,10.22,9.11c10.48,13.28,21.88,38.85,29.42,55.77l2,4.39c10.14-5.11,29.78-16.78,45.16-36.72,22-28.51,42.22-44.24,58.5-45.49,8.67-.66,21.26,3.37,33.68,11-9.25-22.6-21.08-51.87-27.58-69.52-1.05-2.87-2.27-6.22-3.61-9.92C231.57,78.55,212.69,26.42,203.37,19c-4-3.15-5.41-3.11-5.76-3-1.17.29-5.65,2.7-14,21.62-2,4.62-4.21,9.72-6.5,15.11-12.12,28.53-28.72,67.6-53.44,98.31C113.38,163.86,102.71,174.3,91.88,182.18Z"/><path class="cls-1" d="M90.19,117.25a8,8,0,0,1-6.55-12.53,40.79,40.79,0,0,0,3.68-7.22C92,86.64,97.7,77.29,120.3,72.94a63.62,63.62,0,0,0,20.13-11.31c8.21-7,17-19.9,24.73-31.33,7.27-10.71,13-19.18,18.42-23.42a8,8,0,1,1,9.85,12.57c-3.44,2.7-9.34,11.4-15,19.82-8.32,12.27-17.75,26.19-27.64,34.55a78.53,78.53,0,0,1-26.33,14.57l-.73.17c-16.47,3.09-18.55,7.92-21.7,15.25a54.64,54.64,0,0,1-5.22,10A8,8,0,0,1,90.19,117.25Z"/></g></g></svg>