<svg xmlns="http://www.w3.org/2000/svg" viewBox="0 0 270.75 270"><defs><style>.cls-1{fill:#fff;}</style></defs><g id="Layer_2" data-name="Layer 2"><g id="Layer_1-2" data-name="Layer 1"><path class="cls-1" d="M66.79,209.21H46.51c-15.55,0-28-8-36.08-23C3.51,173.24,0,155.51,0,133.5,0,88.42,24.76,67.89,47.77,67.89H67.92c0-9.6,0-25.82,0-34.1,0-5.76,2.46-16.6,19-24.52C99.67,3.12,118.36,0,142.41,0c61.51,0,66.29,33,66.29,43.16v62.33c0,22.6-15,36.09-40.15,36.09H100.92c-20.33,0-26.52,5.71-26.52,24.43V201.6A7.61,7.61,0,0,1,66.79,209.21ZM47.77,83.1c-15.68,0-32.56,15.77-32.56,50.4,0,18.19,3.05,60.5,31.3,60.5H59.19V166c0-14.27,3.62-24.38,11.08-30.9,6.82-6,16.56-8.74,30.65-8.74h67.63c10.71,0,24.94-2.17,24.94-20.88V43.16c0-8.41-5-27.95-51.08-27.95-27.1,0-41.59,4.23-49,7.77-6.57,3.15-10.34,7.1-10.34,10.81,0,8.28,0,24.51,0,34.1h55.42a7.61,7.61,0,0,1,0,15.21Z"/><path class="cls-1" d="M260.32,83.81c-8-15.06-20.53-23-36.07-23H204a7.61,7.61,0,0,0-7.6,7.61V104c0,18.72-6.2,24.43-26.53,24.43H102.2c-25.14,0-40.15,13.49-40.15,36.09v62.33c0,10.13,4.78,43.16,66.3,43.16,24.05,0,42.73-3.12,55.54-9.27,16.51-7.92,19-18.76,19-24.52,0-4.65,0-11.79,0-18.87H132.24a7.62,7.62,0,1,1,0-15.21h70.59v0H223c23,0,47.77-20.53,47.77-65.61C270.75,114.49,267.24,96.76,260.32,83.81Z"/></g></g></svg>