<svg xmlns="http://www.w3.org/2000/svg" viewBox="0 0 303.37 270"><defs><style>.cls-1{fill:#fff;}</style></defs><g id="Layer_2" data-name="Layer 2"><g id="Layer_1-2" data-name="Layer 1"><path class="cls-1" d="M151.69,193.24C78.15,193.24,0,172.83,0,135S78.15,76.76,151.69,76.76,303.37,97.17,303.37,135,225.22,193.24,151.69,193.24Zm0-101c-37.6,0-72.83,5.1-99.21,14.35-23.15,8.12-37,18.74-37,28.39s13.82,20.27,37,28.39c26.38,9.25,61.61,14.35,99.21,14.35s72.82-5.1,99.21-14.35c23.14-8.12,37-18.74,37-28.39s-13.83-20.27-37-28.39C224.51,97.36,189.28,92.26,151.69,92.26Z"/><path class="cls-1" d="M90,270a27.8,27.8,0,0,1-14.13-3.64c-32.76-18.91-11.36-96.8,25.41-160.48,19.64-34,42.85-63.42,65.35-82.75,31.46-27,50.5-25.52,60.93-19.49,32.76,18.91,11.36,96.8-25.4,160.48-19.65,34-42.86,63.42-65.36,82.75C116.23,264.52,101,270,90,270ZM213.38,15.52c-9,0-22,6.81-36.67,19.37-21.21,18.22-43.24,46.18-62,78.74s-32,65.62-37.17,93.09c-4.54,24.11-2.27,41.39,6.1,46.22s24.46-1.84,43.06-17.83c21.21-18.22,43.24-46.18,62-78.74s32-65.62,37.17-93.09c4.55-24.11,2.27-41.39-6.09-46.22A12.71,12.71,0,0,0,213.38,15.52Z"/><path class="cls-1" d="M213.4,270c-11,0-26.26-5.48-46.8-23.13-22.5-19.33-45.71-48.72-65.35-82.75C64.48,100.44,43.08,22.55,75.84,3.64c10.44-6,29.48-7.54,60.93,19.49,22.5,19.33,45.71,48.72,65.36,82.75,36.76,63.68,58.16,141.57,25.4,160.48A27.8,27.8,0,0,1,213.4,270ZM90,15.52a12.65,12.65,0,0,0-6.39,1.54C75.23,21.89,73,39.17,77.5,63.28c5.17,27.47,18.38,60.53,37.17,93.09s40.83,60.52,62,78.74c18.6,16,34.7,22.65,43.07,17.83s10.64-22.11,6.09-46.22c-5.17-27.47-18.37-60.53-37.17-93.09s-40.83-60.52-62-78.74C112.05,22.33,99,15.52,90,15.52Z"/><circle class="cls-1" cx="151.69" cy="135" r="13.77"/><path class="cls-1" d="M151.69,156.52A21.52,21.52,0,1,1,173.21,135,21.55,21.55,0,0,1,151.69,156.52Zm0-27.54a6,6,0,1,0,6,6A6,6,0,0,0,151.69,129Z"/></g></g></svg>